<?xml version="1.0" encoding="UTF-8" ?>
<!DOCTYPE svg PUBLIC "-//W3C//DTD SVG 1.1//EN" "http://www.w3.org/Graphics/SVG/1.1/DTD/svg11.dtd">
<svg width="1000pt" height="1000pt" viewBox="0 0 1000 1000" version="1.1" xmlns="http://www.w3.org/2000/svg">
<path fill="#ffffff" d=" M 0.00 0.00 L 1000.00 0.00 L 1000.00 1000.00 L 459.12 1000.00 L 458.93 999.17 C 459.40 999.12 460.34 999.02 460.81 998.97 C 471.73 998.92 469.03 983.87 468.30 976.75 C 464.44 964.97 476.43 943.57 459.37 939.68 C 441.90 933.35 421.46 940.82 404.64 935.32 C 399.44 903.85 400.77 870.99 398.10 839.02 C 397.31 799.99 393.95 760.99 393.05 721.97 C 394.05 712.76 398.61 699.88 389.70 693.22 C 381.00 678.17 374.02 705.24 374.37 711.41 C 379.01 781.15 375.65 851.38 381.04 921.05 C 369.01 911.85 369.15 892.11 367.35 877.99 C 368.10 831.40 364.43 784.90 364.73 738.29 C 361.48 721.39 366.27 703.07 360.01 687.02 C 353.31 676.35 348.69 691.47 343.07 695.15 C 339.00 688.35 342.72 678.36 335.89 672.81 C 328.30 672.53 331.72 682.36 332.11 686.84 C 334.85 715.70 335.64 744.72 336.33 773.69 C 336.36 781.44 334.97 789.47 336.91 797.12 L 337.10 797.89 C 337.28 808.91 336.22 820.01 337.72 830.99 L 337.79 831.64 C 339.18 847.52 335.50 865.72 343.75 880.24 L 344.02 880.95 C 347.20 893.31 354.08 905.06 364.74 912.35 C 374.65 928.47 366.14 949.89 369.05 967.97 C 367.17 977.82 380.24 981.03 387.25 977.47 L 388.03 977.19 C 402.89 971.62 388.57 946.30 394.86 937.18 C 403.73 945.32 417.12 942.13 428.19 943.90 C 430.11 943.99 432.03 944.04 433.96 944.11 C 434.98 945.09 436.42 945.49 437.82 945.16 C 437.96 945.78 438.24 947.03 438.38 947.65 C 442.11 963.98 428.71 988.72 445.38 1000.00 L 0.00 1000.00 L 0.00 0.00 Z" />
<path fill="#000000" d=" M 502.29 2.04 C 512.10 -2.62 513.62 12.23 504.33 11.18 C 506.11 7.22 502.74 7.44 499.04 7.93 C 499.91 5.87 500.88 3.81 502.29 2.04 Z" />
<path fill="#000000" d=" M 514.16 13.07 C 519.32 15.56 527.85 29.63 521.45 32.52 C 518.43 29.16 516.28 37.49 513.10 32.75 C 512.51 28.15 521.18 26.24 516.87 20.16 C 515.56 17.86 511.97 15.98 514.16 13.07 Z" />
<path fill="#000000" d=" M 482.23 27.06 C 484.90 25.91 491.41 32.79 486.55 32.63 C 480.47 34.66 480.23 30.32 482.23 27.06 Z" />
<path fill="#000000" d=" M 497.99 31.02 C 502.71 29.99 503.92 37.46 509.21 34.18 C 505.86 38.84 503.79 45.90 496.22 43.96 C 492.55 40.49 498.16 40.75 501.07 40.03 C 498.73 37.54 497.11 34.70 497.99 31.02 Z" />
<path fill="#000000" d=" M 487.09 40.04 C 491.94 45.86 487.47 60.96 488.96 70.05 C 485.63 83.21 491.34 69.72 491.87 72.86 C 490.40 78.77 501.08 72.94 496.93 80.65 C 492.08 79.42 489.19 82.35 487.44 86.07 C 482.43 71.54 489.53 55.57 487.09 40.04 Z" />
<path fill="#000000" d=" M 520.99 70.06 C 523.36 62.25 516.89 46.33 522.98 41.98 C 524.59 53.32 524.87 71.70 523.01 83.00 C 520.01 77.93 517.47 82.81 515.19 87.26 C 519.92 78.72 504.22 83.97 508.38 74.53 C 519.38 68.84 513.87 56.89 515.31 47.34 C 520.88 36.09 519.00 61.09 517.89 67.14 C 517.64 68.18 517.83 69.13 518.46 70.02 C 518.64 72.91 522.95 80.67 520.99 70.06 Z" />
<path fill="#000000" d=" M 481.10 47.04 C 487.96 49.03 482.63 63.88 483.90 71.09 C 476.37 67.54 483.49 54.36 481.10 47.04 Z" />
<path fill="#dbdbd4" d=" M 517.89 67.14 C 519.49 67.68 519.68 68.64 518.46 70.02 C 517.83 69.13 517.64 68.18 517.89 67.14 Z" />
<path fill="#000000" d=" M 501.22 75.09 C 513.30 74.95 495.22 89.02 501.22 75.09 Z" />
<path fill="#8e7434" d=" M 482.15 82.44 C 485.82 83.42 479.96 86.11 482.15 82.44 Z" />
<path fill="#8e7434" d=" M 524.30 85.27 C 525.92 86.41 527.11 88.42 527.88 91.30 C 525.68 90.21 519.04 86.57 524.30 85.27 Z" />
<path fill="#000000" d=" M 481.28 87.40 C 487.16 86.45 491.97 93.89 484.51 95.62 C 474.45 99.52 477.42 92.01 481.28 87.40 Z" />
<path fill="#8e7434" d=" M 495.44 87.15 C 499.11 84.96 496.41 90.82 495.44 87.15 Z" />
<path fill="#8e7434" d=" M 504.44 87.15 C 508.11 84.96 505.41 90.82 504.44 87.15 Z" />
<path fill="#8e7434" d=" M 501.21 88.07 C 504.87 88.64 505.01 100.79 497.14 97.94 C 495.70 95.03 499.51 97.19 500.97 97.00 C 502.30 94.45 498.70 90.31 501.21 88.07 Z" />
<path fill="#8e7434" d=" M 509.31 88.30 C 510.93 87.90 514.05 87.16 512.95 89.92 C 512.14 94.35 503.06 89.75 509.31 88.30 Z" />
<path fill="#8e7434" d=" M 488.93 88.98 C 497.56 88.22 492.35 96.46 488.93 88.98 Z" />
<path fill="#000000" d=" M 511.22 93.22 C 517.32 97.23 525.82 101.10 530.73 95.13 C 541.29 113.94 562.14 123.24 574.32 140.69 C 584.92 159.60 583.85 181.59 583.39 202.57 C 585.46 244.47 583.25 285.95 582.23 327.82 C 588.84 349.28 582.28 372.04 585.04 393.98 C 584.27 400.02 588.57 411.92 579.10 412.15 C 578.86 339.07 579.32 266.06 579.04 193.00 C 579.52 172.94 577.61 150.54 562.24 135.78 C 553.32 125.42 543.09 114.22 529.03 111.53 C 528.18 110.92 527.25 110.67 526.22 110.79 L 525.36 110.74 C 518.77 110.63 510.94 108.41 505.01 111.17 L 504.49 111.96 C 503.61 113.03 503.88 114.49 503.95 115.75 C 503.96 117.09 503.90 118.42 503.77 119.76 C 503.42 123.49 503.16 127.23 503.00 130.98 C 501.49 137.38 504.55 149.45 500.25 151.80 C 498.78 137.49 494.95 119.13 505.45 106.34 C 514.16 103.79 522.65 108.76 530.82 103.76 C 523.37 97.92 513.44 99.40 504.92 97.84 C 505.90 93.37 511.65 97.82 511.22 93.22 Z" />
<path fill="#000000" d=" M 485.17 98.50 C 487.70 97.46 490.55 93.67 493.33 95.63 C 498.92 102.75 478.62 100.27 484.89 106.09 C 486.47 113.17 496.17 105.41 502.32 105.32 C 487.82 105.50 503.12 97.65 504.71 100.02 C 503.45 100.83 503.52 101.43 504.95 101.85 C 503.67 105.44 501.65 112.00 496.79 110.99 C 495.49 110.77 494.18 111.00 493.01 111.56 C 492.47 111.66 491.37 111.85 490.83 111.94 C 489.20 111.86 487.59 112.02 486.05 112.53 C 485.54 112.63 484.51 112.85 484.00 112.95 C 483.49 113.14 482.48 113.53 481.98 113.72 C 478.40 114.88 474.49 113.73 470.97 114.95 C 449.83 129.94 428.38 151.21 428.17 179.03 C 426.29 292.84 429.62 407.08 427.93 521.03 C 426.56 524.97 435.16 528.95 428.20 530.54 C 427.93 548.50 426.24 567.41 433.48 584.39 C 435.00 588.06 436.64 592.21 434.88 596.12 C 428.07 587.03 419.54 577.77 421.77 565.04 C 418.46 546.49 428.81 527.92 422.06 509.96 C 423.28 462.50 421.86 415.42 423.06 367.97 C 421.09 351.53 418.88 333.76 422.51 317.50 C 418.68 284.24 422.99 248.97 419.99 215.02 C 420.39 190.66 418.00 163.42 433.80 142.91 C 442.98 127.68 459.90 119.25 468.74 103.78 C 471.11 97.94 478.15 100.29 483.18 99.28 C 483.68 99.09 484.67 98.69 485.17 98.50 Z" />
<path fill="#dbdbd4" d=" M 483.18 99.28 C 483.68 99.09 484.67 98.69 485.17 98.50 C 484.67 98.69 483.68 99.09 483.18 99.28 Z" />
<path fill="#dbdbd4" d=" M 504.95 101.85 C 503.52 101.43 503.45 100.83 504.71 100.02 C 504.77 100.48 504.89 101.39 504.95 101.85 Z" />
<path fill="#8e7434" d=" M 515.10 100.26 C 518.37 100.44 513.56 103.29 515.10 100.26 Z" />
<path fill="#dbdbd4" d=" M 505.01 111.17 C 510.94 108.41 518.77 110.63 525.36 110.74 C 518.56 111.00 511.79 110.99 505.01 111.17 Z" />
<path fill="#dbdbd4" d=" M 493.01 111.56 C 494.18 111.00 495.49 110.77 496.79 110.99 C 496.89 112.80 493.79 112.80 493.01 111.56 Z" />
<path fill="#dbdbd4" d=" M 526.22 110.79 C 527.25 110.67 528.18 110.92 529.03 111.53 C 527.58 112.73 526.64 112.48 526.22 110.79 Z" />
<path fill="#dbdbd4" d=" M 486.05 112.53 C 487.59 112.02 489.20 111.86 490.83 111.94 C 490.65 113.95 487.15 113.74 486.05 112.53 Z" />
<path fill="#dbdbd4" d=" M 503.95 115.75 C 503.88 114.49 503.61 113.03 504.49 111.96 C 505.64 112.77 505.70 115.78 503.95 115.75 Z" />
<path fill="#dbdbd4" d=" M 481.98 113.72 C 482.48 113.53 483.49 113.14 484.00 112.95 C 483.49 113.14 482.48 113.53 481.98 113.72 Z" />
<path fill="#dbdbd4" d=" M 503.00 130.98 C 503.16 127.23 503.42 123.49 503.77 119.76 C 504.51 124.45 504.25 128.19 503.00 130.98 Z" />
<path fill="#8e7434" d=" M 538.01 151.87 C 543.28 146.98 531.85 125.36 544.84 128.04 C 546.07 136.92 546.38 145.93 544.99 154.80 C 568.68 149.60 575.85 186.59 558.32 196.52 C 562.23 252.67 558.88 310.30 560.00 367.00 C 559.02 394.24 561.90 422.46 558.69 449.13 C 557.49 450.12 557.68 451.76 558.53 452.93 C 562.12 458.27 555.30 462.10 557.70 467.18 C 560.36 473.03 549.38 468.83 553.99 464.00 C 554.40 385.00 553.04 305.95 555.03 227.00 C 554.65 217.49 556.23 206.80 551.72 198.07 C 541.38 197.86 530.09 200.62 520.98 193.85 C 519.17 204.46 524.28 214.08 526.02 224.21 C 523.10 221.06 523.15 216.34 521.33 212.63 C 519.66 212.84 522.95 225.53 519.20 220.66 C 518.75 210.44 519.10 199.49 514.81 190.00 C 510.48 190.45 506.32 192.18 501.92 192.03 C 502.87 186.71 504.89 181.63 505.40 176.21 C 519.71 174.14 533.66 178.45 548.02 176.87 C 548.24 166.20 541.95 151.50 529.28 154.79 C 517.82 151.52 532.42 149.91 538.01 151.87 Z" />
<path fill="#8e7434" d=" M 455.16 129.89 C 467.01 126.67 459.59 159.42 460.00 145.01 C 457.26 129.90 463.13 153.99 456.11 150.98 C 455.92 143.94 455.92 136.89 455.16 129.89 Z" />
<path fill="#dbdbd4" d=" M 459.10 134.26 C 462.37 134.44 457.56 137.29 459.10 134.26 Z" />
<path fill="#8e7434" d=" M 501.08 152.80 C 503.90 154.10 502.96 157.49 502.97 159.98 C 499.25 160.66 501.54 155.04 501.08 152.80 Z" />
<path fill="#ffffff" d=" M 561.07 164.81 C 565.78 166.71 570.04 183.08 561.05 180.00 C 561.05 176.20 561.06 168.61 561.07 164.81 Z" />
<path fill="#dbdbd4" d=" M 550.10 168.26 C 553.37 168.44 548.56 171.29 550.10 168.26 Z" />
<path fill="#8e7434" d=" M 479.08 171.06 C 479.02 180.36 493.22 174.20 500.03 176.09 C 499.72 180.91 500.92 187.07 496.95 190.78 C 493.23 187.06 489.25 192.21 485.33 188.74 C 478.90 188.48 486.32 176.26 478.17 178.19 C 482.41 188.94 468.40 195.72 463.59 185.49 C 454.90 184.81 462.00 178.09 466.95 177.94 C 470.39 172.13 481.25 180.56 479.08 171.06 Z" />
<path fill="#8e7434" d=" M 436.95 172.07 C 449.34 169.63 443.99 180.14 445.35 186.21 C 442.23 184.64 436.00 177.56 436.95 172.07 Z" />
<path fill="#8e7434" d=" M 445.49 190.47 C 447.33 194.00 439.94 198.24 445.49 190.47 Z" />
<path fill="#8e7434" d=" M 499.22 190.89 C 503.83 196.10 499.65 205.44 500.95 211.98 C 494.44 210.82 498.02 197.33 499.22 190.89 Z" />
<path fill="#8e7434" d=" M 439.96 207.21 C 443.51 202.57 444.21 196.31 448.00 191.79 C 448.36 194.49 447.43 197.06 445.65 199.09 C 444.75 200.13 444.07 201.39 444.08 202.81 C 444.09 204.07 443.64 205.13 442.72 205.97 C 442.52 206.46 442.13 207.44 441.94 207.93 C 441.36 258.85 443.52 309.87 440.65 360.73 C 439.15 383.14 440.51 405.62 439.88 428.06 C 439.85 428.48 439.79 429.33 439.76 429.75 C 439.62 447.38 436.16 466.30 441.70 483.31 C 443.88 487.26 443.39 490.59 439.86 485.88 C 440.81 492.11 449.09 498.00 446.90 503.58 C 433.86 489.19 430.15 466.79 432.97 447.01 C 433.11 388.66 435.80 330.39 435.00 272.00 C 435.92 247.58 431.57 222.21 440.91 198.96 C 445.50 193.94 439.35 204.39 439.96 207.21 Z" />
<path fill="#8e7434" d=" M 477.23 193.48 C 480.78 195.62 474.78 198.05 477.23 193.48 Z" />
<path fill="#8e7434" d=" M 486.01 193.02 C 493.89 191.25 486.66 198.73 486.01 193.02 Z" />
<path fill="#8e7434" d=" M 507.44 195.15 C 511.11 192.96 508.41 198.82 507.44 195.15 Z" />
<path fill="#dbdbd4" d=" M 444.08 202.81 C 444.07 201.39 444.75 200.13 445.65 199.09 C 446.95 200.20 445.93 203.45 444.08 202.81 Z" />
<path fill="#8e7434" d=" M 476.25 199.31 C 480.52 198.64 474.24 204.29 476.25 199.31 Z" />
<path fill="#8e7434" d=" M 475.40 204.42 C 475.44 206.06 479.52 215.17 472.83 215.80 C 473.61 211.99 474.23 208.13 475.40 204.42 Z" />
<path fill="#dbdbd4" d=" M 441.94 207.93 C 442.13 207.44 442.52 206.46 442.72 205.97 C 442.52 206.46 442.13 207.44 441.94 207.93 Z" />
<path fill="#dbdbd4" d=" M 439.10 208.26 C 442.37 208.44 437.56 211.29 439.10 208.26 Z" />
<path fill="#dbdbd4" d=" M 439.23 211.48 C 442.78 213.62 436.78 216.05 439.23 211.48 Z" />
<path fill="#8e7434" d=" M 477.10 221.26 C 480.37 221.44 475.56 224.29 477.10 221.26 Z" />
<path fill="#8e7434" d=" M 472.18 228.87 C 469.52 233.49 470.15 222.12 474.01 223.94 C 476.44 222.68 476.26 228.24 474.80 227.91 C 473.67 227.62 472.80 227.94 472.18 228.87 Z" />
<path fill="#8e7434" d=" M 523.13 227.42 C 530.07 230.18 520.10 232.66 523.13 227.42 Z" />
<path fill="#dbdbd4" d=" M 472.18 228.87 C 472.80 227.94 473.67 227.62 474.80 227.91 C 474.47 229.49 473.60 229.81 472.18 228.87 Z" />
<path fill="#8e7434" d=" M 478.10 230.26 C 481.37 230.44 476.56 233.29 478.10 230.26 Z" />
<path fill="#8e7434" d=" M 487.13 255.36 C 491.12 254.73 486.34 259.34 487.13 255.36 Z" />
<path fill="#8e7434" d=" M 510.30 256.30 C 512.66 254.86 511.21 258.87 511.56 260.16 C 508.48 260.82 506.36 256.64 510.30 256.30 Z" />
<path fill="#8e7434" d=" M 461.17 257.11 C 464.52 259.22 457.63 259.43 461.17 257.11 Z" />
<path fill="#8e7434" d=" M 495.45 258.30 C 497.08 266.09 495.87 282.15 494.57 292.37 C 496.25 296.52 493.20 303.12 495.17 307.81 C 493.55 308.52 493.56 310.50 495.19 311.20 L 495.52 311.49 C 493.51 314.24 493.91 318.09 495.09 321.11 C 495.08 321.27 495.08 321.59 495.07 321.76 C 493.64 322.61 493.65 324.35 495.05 325.24 L 495.25 325.50 C 493.77 328.91 493.91 332.86 495.13 336.33 L 495.04 336.66 C 493.73 338.83 494.88 341.13 495.53 343.31 C 495.73 344.90 495.67 346.50 495.62 348.10 C 494.33 348.78 494.36 349.39 495.72 349.93 C 495.72 351.65 495.66 353.38 495.59 355.11 C 494.35 355.89 494.44 356.50 495.86 356.94 C 495.87 357.48 495.89 358.56 495.90 359.11 C 494.48 359.59 494.44 360.19 495.76 360.93 C 498.69 366.94 496.68 373.90 488.92 373.05 C 494.88 359.16 475.71 375.45 467.79 368.04 C 472.99 370.96 479.63 376.03 485.12 371.07 C 493.50 372.19 479.95 374.00 480.11 376.82 C 479.37 387.07 490.72 386.25 496.19 392.15 C 496.11 392.86 495.96 394.28 495.88 394.99 C 494.75 395.16 494.07 395.75 493.84 396.77 C 493.33 397.91 493.52 398.95 494.67 399.61 C 494.82 401.02 495.04 402.43 495.31 403.84 C 497.40 409.99 492.02 425.67 499.29 419.30 C 501.08 443.72 499.71 471.31 498.90 496.97 C 494.86 498.16 497.43 492.71 497.27 490.26 C 498.68 471.23 497.89 452.10 497.94 433.05 C 497.58 427.65 494.69 433.62 495.82 436.05 C 497.92 444.14 489.31 443.87 487.87 450.83 C 487.00 454.76 482.53 455.01 479.71 456.99 C 479.49 457.49 479.06 458.47 478.85 458.96 L 478.60 459.94 C 478.01 461.25 477.47 462.60 477.32 464.04 C 477.17 464.77 476.88 466.22 476.74 466.95 C 476.52 467.43 476.07 468.40 475.85 468.89 C 475.19 475.21 475.00 481.55 474.92 487.91 C 471.53 484.76 476.60 473.62 473.01 469.92 C 472.79 480.54 472.82 491.21 473.91 501.81 C 469.80 506.06 470.40 497.81 469.96 494.95 C 469.52 491.29 472.34 486.64 469.48 483.44 C 469.35 483.07 469.10 482.34 468.97 481.97 C 468.93 478.55 468.96 475.22 469.00 471.83 C 469.09 471.36 469.27 470.42 469.36 469.96 C 470.02 469.09 470.26 468.11 470.10 467.04 L 470.30 466.07 C 470.98 465.18 471.24 464.19 471.09 463.09 L 471.17 462.08 C 471.39 461.58 471.82 460.57 472.04 460.06 L 472.11 459.10 C 472.37 458.63 472.90 457.69 473.16 457.22 C 474.09 454.03 475.44 450.98 476.77 447.94 C 473.26 447.61 465.95 437.23 472.34 431.84 C 473.34 430.55 473.09 428.82 473.13 427.31 C 477.03 418.20 468.39 401.21 480.93 397.78 C 477.22 394.69 476.17 389.33 479.72 384.35 C 476.82 382.05 472.73 380.08 474.38 375.80 C 471.17 371.51 463.65 371.61 460.44 366.83 C 460.31 353.02 462.12 339.47 460.46 325.75 C 460.76 320.61 470.58 327.21 470.96 323.06 C 466.73 322.90 456.46 324.25 462.42 318.73 C 462.42 318.36 462.42 317.64 462.42 317.27 C 453.94 311.38 476.29 313.34 462.12 311.83 C 457.79 311.11 462.10 308.75 464.15 308.21 C 458.92 309.73 459.39 303.23 462.66 301.30 C 455.95 298.79 467.08 298.54 462.04 295.03 C 470.04 297.19 465.14 293.36 461.91 291.11 C 469.10 293.45 466.57 288.92 460.85 288.61 C 466.69 287.43 468.37 286.84 461.25 284.81 C 465.39 277.68 458.13 265.61 463.83 259.85 C 461.48 267.80 466.08 271.77 472.00 272.06 C 462.96 268.11 461.14 280.30 472.93 278.17 C 473.37 281.11 468.84 279.42 467.63 281.69 C 473.63 280.37 475.24 281.96 472.10 285.16 C 482.55 284.03 471.60 269.89 477.10 260.00 C 486.18 264.13 472.04 285.25 487.24 279.70 C 495.62 282.32 487.22 276.35 482.11 276.91 C 484.08 273.62 488.07 276.24 490.78 276.95 C 492.92 270.91 489.85 262.87 495.45 258.30 Z" />
<path fill="#8e7434" d=" M 467.46 260.29 C 473.05 257.79 470.93 263.62 467.46 260.29 Z" />
<path fill="#8e7434" d=" M 514.12 260.01 C 523.72 261.06 515.15 279.22 519.69 283.78 C 537.27 281.57 506.21 287.80 523.07 286.97 C 525.17 286.94 512.78 291.97 521.17 290.26 C 530.38 289.81 513.21 293.51 519.46 294.58 C 534.54 291.35 506.21 299.68 523.08 297.99 C 525.77 297.86 513.20 302.43 520.35 301.41 C 526.40 299.85 523.00 303.91 518.96 303.95 C 513.70 307.56 528.62 303.98 522.87 305.77 C 518.24 305.81 520.47 308.91 523.95 308.24 C 524.27 311.11 519.83 309.39 518.66 311.72 C 535.96 309.87 506.18 317.45 522.97 315.96 C 527.39 317.15 514.19 317.23 520.96 319.06 C 531.33 320.84 507.02 322.92 523.16 323.10 C 526.10 324.78 517.95 324.14 519.00 326.85 C 532.00 327.91 517.44 326.70 517.92 330.77 C 533.85 330.59 506.72 333.81 523.01 334.07 C 527.54 337.05 516.46 333.83 518.08 337.86 C 528.97 337.26 520.36 339.12 517.92 340.32 C 519.51 343.03 529.64 342.59 518.00 343.16 C 517.70 346.13 522.13 344.37 523.33 346.72 C 506.97 347.01 528.78 348.80 520.79 350.81 C 514.11 352.70 534.39 354.59 518.99 354.15 C 524.81 356.74 517.33 363.72 524.25 363.28 C 522.27 364.65 519.67 365.77 517.31 364.72 C 514.59 363.33 511.47 363.30 508.51 363.03 L 507.53 362.90 C 505.35 362.45 503.20 361.98 501.07 361.50 C 500.64 359.04 498.80 356.34 503.08 356.72 C 495.99 353.90 503.56 348.77 499.06 344.12 C 504.54 344.04 496.36 336.08 503.16 335.20 C 497.63 336.88 498.45 328.56 501.75 328.21 C 496.12 327.40 500.77 324.53 502.91 324.13 C 496.82 324.19 500.02 321.91 502.88 321.14 C 493.86 320.25 503.28 316.52 508.19 317.87 C 512.23 319.62 512.18 315.32 508.18 317.23 C 505.81 316.34 496.32 319.08 500.33 314.37 C 495.49 308.98 505.85 311.29 509.17 310.97 C 512.24 312.47 512.13 308.44 509.16 310.19 C 507.67 310.14 506.20 309.95 504.76 309.61 C 503.64 309.28 501.40 308.62 500.28 308.29 C 494.00 300.89 516.08 305.21 500.06 302.92 C 496.11 298.03 503.29 294.52 509.00 296.99 C 527.84 294.87 487.64 295.34 504.98 294.02 C 514.27 298.35 519.30 286.24 509.00 287.99 C 502.05 287.89 511.14 285.07 513.84 286.92 C 516.26 278.36 514.04 269.16 514.12 260.01 Z" />
<path fill="#8e7434" d=" M 540.15 260.44 C 543.82 261.42 537.96 264.11 540.15 260.44 Z" />
<path fill="#8e7434" d=" M 485.29 261.25 C 494.23 261.28 478.27 265.29 485.29 261.25 Z" />
<path fill="#8e7434" d=" M 500.26 262.10 C 503.29 260.56 500.44 265.38 500.26 262.10 Z" />
<path fill="#8e7434" d=" M 506.48 262.23 C 511.05 259.78 508.62 265.78 506.48 262.23 Z" />
<path fill="#8e7434" d=" M 467.46 264.29 C 473.05 261.79 470.93 267.62 467.46 264.29 Z" />
<path fill="#8e7434" d=" M 531.57 264.35 C 535.69 267.16 526.90 266.58 525.54 269.52 C 521.73 272.67 528.42 269.99 530.03 269.03 C 535.13 264.74 532.61 279.85 526.70 275.68 C 528.28 281.81 515.50 282.72 522.79 278.54 C 518.79 276.30 522.79 270.53 522.16 266.81 C 516.58 261.57 530.08 270.41 531.57 264.35 Z" />
<path fill="#8e7434" d=" M 536.90 263.88 C 543.15 265.41 539.33 273.66 540.32 277.87 C 538.86 309.36 537.75 341.05 538.77 372.72 C 532.35 376.58 539.55 370.02 533.64 370.31 C 530.10 368.73 528.54 374.21 524.90 372.90 C 524.34 371.50 523.74 371.48 523.10 372.84 C 517.33 375.48 516.77 362.44 524.54 366.59 C 531.74 368.94 517.84 358.47 529.62 363.02 C 528.37 367.54 532.22 371.75 534.45 365.89 C 532.35 358.75 533.58 351.51 533.74 344.39 C 530.60 344.27 530.90 342.72 533.86 342.53 C 537.45 334.85 528.61 337.07 524.86 335.80 C 526.58 332.24 530.47 334.89 533.04 335.85 C 535.76 321.08 533.40 305.66 535.90 290.86 C 537.04 284.21 537.39 276.19 537.46 272.50 C 541.91 269.52 533.53 273.73 536.22 269.40 C 540.60 269.50 537.67 266.22 536.90 263.88 Z" />
<path fill="#8e7434" d=" M 485.29 265.25 C 494.23 265.28 478.27 269.29 485.29 265.25 Z" />
<path fill="#8e7434" d=" M 500.24 265.23 C 505.93 263.17 500.06 270.60 500.24 265.23 Z" />
<path fill="#8e7434" d=" M 506.01 265.02 C 513.89 263.25 506.66 270.73 506.01 265.02 Z" />
<path fill="#8e7434" d=" M 469.29 267.25 C 478.23 267.28 462.27 271.29 469.29 267.25 Z" />
<path fill="#8e7434" d=" M 483.46 269.29 C 489.05 266.79 486.93 272.62 483.46 269.29 Z" />
<path fill="#8e7434" d=" M 499.44 269.15 C 503.11 266.96 500.41 272.82 499.44 269.15 Z" />
<path fill="#8e7434" d=" M 505.46 269.29 C 511.05 266.79 508.93 272.62 505.46 269.29 Z" />
<path fill="#dbdbd4" d=" M 528.39 271.39 C 534.00 272.38 519.78 276.11 528.39 271.39 Z" />
<path fill="#8e7434" d=" M 482.81 272.03 C 490.68 269.96 486.86 277.48 482.81 272.03 Z" />
<path fill="#8e7434" d=" M 500.24 272.23 C 505.93 270.17 500.06 277.60 500.24 272.23 Z" />
<path fill="#8e7434" d=" M 506.26 272.11 C 515.93 270.99 502.70 277.39 506.26 272.11 Z" />
<path fill="#8e7434" d=" M 467.47 275.32 C 474.27 272.35 469.33 280.03 467.47 275.32 Z" />
<path fill="#8e7434" d=" M 500.49 276.14 C 505.06 274.64 501.24 280.45 500.49 276.14 Z" />
<path fill="#8e7434" d=" M 506.46 276.29 C 512.05 273.79 509.93 279.62 506.46 276.29 Z" />
<path fill="#8e7434" d=" M 529.29 276.25 C 538.23 276.28 522.27 280.29 529.29 276.25 Z" />
<path fill="#dbdbd4" d=" M 464.27 279.25 C 469.50 277.07 463.93 284.18 464.27 279.25 Z" />
<path fill="#8e7434" d=" M 500.01 279.02 C 507.89 277.25 500.66 284.73 500.01 279.02 Z" />
<path fill="#8e7434" d=" M 506.01 279.02 C 513.89 277.25 506.66 284.73 506.01 279.02 Z" />
<path fill="#8e7434" d=" M 530.41 279.13 C 535.53 281.88 522.22 281.11 530.41 279.13 Z" />
<path fill="#dbdbd4" d=" M 488.24 282.23 C 493.93 280.17 488.06 287.60 488.24 282.23 Z" />
<path fill="#dbdbd4" d=" M 464.44 283.15 C 468.11 280.96 465.42 286.82 464.44 283.15 Z" />
<path fill="#8e7434" d=" M 500.00 283.00 C 514.25 281.32 508.94 286.42 500.00 283.00 Z" />
<path fill="#8e7434" d=" M 527.01 283.04 C 536.10 280.98 528.61 288.89 527.01 283.04 Z" />
<path fill="#dbdbd4" d=" M 479.02 285.08 C 489.07 282.58 480.85 289.96 479.02 285.08 Z" />
<path fill="#dbdbd4" d=" M 489.24 285.19 C 495.60 285.82 484.68 290.88 489.24 285.19 Z" />
<path fill="#8e7434" d=" M 500.48 287.23 C 505.05 284.78 502.62 290.78 500.48 287.23 Z" />
<path fill="#8e7434" d=" M 527.48 287.23 C 532.05 284.78 529.62 290.78 527.48 287.23 Z" />
<path fill="#ffffff" d=" M 473.90 287.93 C 483.60 285.22 488.87 290.61 478.37 291.17 C 480.16 287.21 474.33 290.69 473.90 287.93 Z" />
<path fill="#dbdbd4" d=" M 488.20 289.07 C 495.35 288.56 485.04 293.91 488.20 289.07 Z" />
<path fill="#8e7434" d=" M 500.17 290.17 C 504.80 289.15 499.15 294.80 500.17 290.17 Z" />
<path fill="#8e7434" d=" M 507.48 290.23 C 512.05 287.78 509.62 293.78 507.48 290.23 Z" />
<path fill="#8e7434" d=" M 527.13 290.26 C 535.01 289.91 525.02 294.76 527.13 290.26 Z" />
<path fill="#dbdbd4" d=" M 480.23 292.13 C 491.60 289.30 475.42 298.74 480.23 292.13 Z" />
<path fill="#dbdbd4" d=" M 487.01 293.02 C 494.89 291.25 487.66 298.73 487.01 293.02 Z" />
<path fill="#8e7434" d=" M 527.49 294.16 C 533.19 292.09 529.26 299.04 527.49 294.16 Z" />
<path fill="#ffffff" d=" M 487.03 295.93 C 495.35 295.15 485.73 303.23 487.03 295.93 Z" />
<path fill="#8e7434" d=" M 527.48 298.23 C 532.05 295.78 529.62 301.78 527.48 298.23 Z" />
<path fill="#dbdbd4" d=" M 480.45 299.36 C 494.53 296.88 470.65 304.96 480.45 299.36 Z" />
<path fill="#ffffff" d=" M 506.26 299.10 C 509.29 297.56 506.44 302.38 506.26 299.10 Z" />
<path fill="#dbdbd4" d=" M 487.08 300.60 C 491.87 298.01 488.47 305.15 487.08 300.60 Z" />
<path fill="#8e7434" d=" M 527.01 301.02 C 534.89 299.25 527.66 306.73 527.01 301.02 Z" />
<path fill="#dbdbd4" d=" M 439.27 302.31 C 440.87 301.61 439.68 306.65 439.95 308.20 C 437.57 307.33 437.01 303.55 439.27 302.31 Z" />
<path fill="#dbdbd4" d=" M 487.08 304.60 C 491.87 302.01 488.47 309.15 487.08 304.60 Z" />
<path fill="#8e7434" d=" M 527.48 305.23 C 532.05 302.78 529.62 308.78 527.48 305.23 Z" />
<path fill="#dbdbd4" d=" M 480.49 306.42 C 492.11 305.14 473.28 312.58 480.49 306.42 Z" />
<path fill="#dbdbd4" d=" M 487.32 307.31 C 493.64 305.62 485.38 313.27 487.32 307.31 Z" />
<path fill="#dbdbd4" d=" M 495.19 311.20 C 493.56 310.50 493.55 308.52 495.17 307.81 C 496.35 308.39 496.37 310.59 495.19 311.20 Z" />
<path fill="#dbdbd4" d=" M 504.76 309.61 C 503.53 311.32 496.90 310.02 500.28 308.29 C 501.40 308.62 503.64 309.28 504.76 309.61 Z" />
<path fill="#8e7434" d=" M 527.48 309.23 C 532.05 306.78 529.62 312.78 527.48 309.23 Z" />
<path fill="#ffffff" d=" M 480.55 310.33 C 482.78 311.08 489.95 308.95 490.02 312.90 C 486.51 311.37 474.27 315.06 480.55 310.33 Z" />
<path fill="#dbdbd4" d=" M 509.16 310.19 C 512.13 308.44 512.24 312.47 509.17 310.97 L 509.16 310.19 Z" />
<path fill="#dbdbd4" d=" M 495.09 321.11 C 493.91 318.09 493.51 314.24 495.52 311.49 C 495.81 314.66 496.22 318.05 495.09 321.11 Z" />
<path fill="#8e7434" d=" M 527.01 312.02 C 534.89 310.25 527.66 317.73 527.01 312.02 Z" />
<path fill="#dbdbd4" d=" M 480.42 314.31 C 482.31 310.88 494.73 317.52 487.49 316.47 C 484.69 313.86 473.56 318.82 480.42 314.31 Z" />
<path fill="#8e7434" d=" M 526.46 316.29 C 532.05 313.79 529.93 319.62 526.46 316.29 Z" />
<path fill="#dbdbd4" d=" M 462.42 318.73 C 460.82 318.24 460.82 317.75 462.42 317.27 C 462.42 317.64 462.42 318.36 462.42 318.73 Z" />
<path fill="#dbdbd4" d=" M 508.18 317.23 C 512.18 315.32 512.23 319.62 508.19 317.87 L 508.18 317.23 Z" />
<path fill="#8e7434" d=" M 526.48 320.23 C 531.05 317.78 528.62 323.78 526.48 320.23 Z" />
<path fill="#dbdbd4" d=" M 495.05 325.24 C 493.65 324.35 493.64 322.61 495.07 321.76 C 496.41 322.31 496.38 324.69 495.05 325.24 Z" />
<path fill="#dbdbd4" d=" M 478.26 323.10 C 481.29 321.56 478.44 326.38 478.26 323.10 Z" />
<path fill="#8e7434" d=" M 526.01 323.04 C 535.10 320.98 527.61 328.89 526.01 323.04 Z" />
<path fill="#dbdbd4" d=" M 495.13 336.33 C 493.91 332.86 493.77 328.91 495.25 325.50 C 495.79 329.07 496.10 332.80 495.13 336.33 Z" />
<path fill="#8e7434" d=" M 526.49 327.16 C 532.19 325.09 528.26 332.04 526.49 327.16 Z" />
<path fill="#ffffff" d=" M 482.44 329.15 C 486.11 326.96 483.41 332.82 482.44 329.15 Z" />
<path fill="#ffffff" d=" M 466.46 330.29 C 472.05 327.79 469.93 333.62 466.46 330.29 Z" />
<path fill="#8e7434" d=" M 527.20 330.07 C 534.35 329.56 524.04 334.91 527.20 330.07 Z" />
<path fill="#dbdbd4" d=" M 478.44 334.15 C 482.11 331.96 479.41 337.82 478.44 334.15 Z" />
<path fill="#ffffff" d=" M 483.26 336.10 C 486.29 334.56 483.44 339.37 483.26 336.10 Z" />
<path fill="#dbdbd4" d=" M 495.53 343.31 C 494.88 341.13 493.73 338.83 495.04 336.66 C 495.86 338.78 495.97 341.08 495.53 343.31 Z" />
<path fill="#dbdbd4" d=" M 478.44 338.15 C 482.11 335.96 479.41 341.82 478.44 338.15 Z" />
<path fill="#8e7434" d=" M 526.01 338.02 C 533.89 336.25 526.66 343.73 526.01 338.02 Z" />
<path fill="#ffffff" d=" M 483.26 340.10 C 486.29 338.56 483.44 343.37 483.26 340.10 Z" />
<path fill="#dbdbd4" d=" M 478.24 341.23 C 483.93 339.17 478.06 346.60 478.24 341.23 Z" />
<path fill="#ffffff" d=" M 487.26 341.10 C 490.29 339.56 487.44 344.37 487.26 341.10 Z" />
<path fill="#8e7434" d=" M 526.48 342.23 C 531.05 339.78 528.62 345.78 526.48 342.23 Z" />
<path fill="#dbdbd4" d=" M 478.27 345.25 C 483.50 343.06 477.93 350.18 478.27 345.25 Z" />
<path fill="#8e7434" d=" M 526.26 345.11 C 535.93 343.99 522.70 350.39 526.26 345.11 Z" />
<path fill="#ffffff" d=" M 483.50 347.27 C 490.29 345.30 488.38 351.47 483.50 347.27 Z" />
<path fill="#dbdbd4" d=" M 480.26 348.18 C 482.94 351.40 475.09 349.42 480.26 348.18 Z" />
<path fill="#dbdbd4" d=" M 495.72 349.93 C 494.36 349.39 494.33 348.78 495.62 348.10 C 495.65 348.55 495.70 349.47 495.72 349.93 Z" />
<path fill="#8e7434" d=" M 526.01 349.02 C 533.89 347.25 526.66 354.73 526.01 349.02 Z" />
<path fill="#dbdbd4" d=" M 513.26 350.10 C 516.29 348.56 513.44 353.37 513.26 350.10 Z" />
<path fill="#dbdbd4" d=" M 478.27 352.25 C 483.50 350.06 477.93 357.18 478.27 352.25 Z" />
<path fill="#8e7434" d=" M 525.46 353.29 C 531.05 350.79 528.93 356.62 525.46 353.29 Z" />
<path fill="#ffffff" d=" M 487.26 354.10 C 490.29 352.56 487.44 357.37 487.26 354.10 Z" />
<path fill="#dbdbd4" d=" M 495.86 356.94 C 494.44 356.50 494.35 355.89 495.59 355.11 C 495.66 355.57 495.79 356.48 495.86 356.94 Z" />
<path fill="#dbdbd4" d=" M 478.27 356.25 C 483.50 354.06 477.93 361.18 478.27 356.25 Z" />
<path fill="#8e7434" d=" M 526.28 356.33 C 532.61 354.19 527.08 361.70 526.28 356.33 Z" />
<path fill="#dbdbd4" d=" M 495.76 360.93 C 494.44 360.19 494.48 359.59 495.90 359.11 C 495.86 359.56 495.79 360.47 495.76 360.93 Z" />
<path fill="#dbdbd4" d=" M 478.44 360.15 C 482.11 357.96 479.41 363.82 478.44 360.15 Z" />
<path fill="#8e7434" d=" M 525.46 360.29 C 531.05 357.79 528.93 363.62 525.46 360.29 Z" />
<path fill="#dbdbd4" d=" M 438.33 361.46 C 441.46 367.36 435.83 369.05 438.33 361.46 Z" />
<path fill="#dbdbd4" d=" M 439.88 428.06 C 440.51 405.62 439.15 383.14 440.65 360.73 C 439.32 382.71 444.23 407.27 439.88 428.06 Z" />
<path fill="#dbdbd4" d=" M 507.53 362.90 C 506.42 365.32 497.70 362.41 501.07 361.50 C 503.20 361.98 505.35 362.45 507.53 362.90 Z" />
<path fill="#dbdbd4" d=" M 508.51 363.03 C 511.47 363.30 514.59 363.33 517.31 364.72 C 513.90 367.71 501.61 366.47 511.11 370.38 C 511.16 370.73 511.27 371.42 511.32 371.77 C 509.55 371.25 506.09 371.90 505.38 370.37 C 508.84 363.08 496.56 367.20 504.52 369.98 C 494.85 368.35 504.11 364.50 508.51 363.03 Z" />
<path fill="#8e7434" d=" M 509.44 365.15 C 513.11 362.96 510.41 368.82 509.44 365.15 Z" />
<path fill="#8e7434" d=" M 504.52 369.98 C 496.56 367.20 508.84 363.08 505.38 370.37 L 504.52 369.98 Z" />
<path fill="#dbdbd4" d=" M 557.32 368.44 C 560.52 373.19 554.81 375.05 557.32 368.44 Z" />
<path fill="#8e7434" d=" M 511.11 370.38 C 513.82 368.78 514.20 373.99 511.32 371.77 C 511.27 371.42 511.16 370.73 511.11 370.38 Z" />
<path fill="#dbdbd4" d=" M 438.10 371.26 C 441.37 371.44 436.56 374.29 438.10 371.26 Z" />
<path fill="#dbdbd4" d=" M 523.10 372.84 C 523.74 371.48 524.34 371.50 524.90 372.90 C 524.45 372.89 523.55 372.86 523.10 372.84 Z" />
<path fill="#8e7434" d=" M 528.26 375.10 C 531.29 373.56 528.44 378.37 528.26 375.10 Z" />
<path fill="#8e7434" d=" M 519.51 375.74 C 524.67 380.40 516.62 384.34 519.51 375.74 Z" />
<path fill="#dbdbd4" d=" M 480.11 376.82 C 481.64 386.13 492.77 384.34 496.19 392.15 C 490.72 386.25 479.37 387.07 480.11 376.82 Z" />
<path fill="#dbdbd4" d=" M 503.96 389.88 C 500.61 387.41 511.54 377.15 513.50 383.30 C 507.82 382.22 506.33 387.23 503.96 389.88 Z" />
<path fill="#8e7434" d=" M 503.96 389.88 C 506.33 387.23 507.82 382.22 513.50 383.30 C 518.30 383.57 518.98 385.50 517.68 391.66 C 516.34 395.36 517.82 398.64 520.54 401.20 C 519.02 407.24 520.78 413.28 521.79 419.30 L 521.90 420.14 C 522.40 425.46 523.03 430.80 523.06 436.16 L 522.81 437.07 C 521.49 437.86 521.58 438.44 523.06 438.81 C 523.54 438.92 524.51 439.13 524.99 439.24 C 524.51 440.67 523.86 442.15 524.13 443.70 C 524.38 445.93 524.91 448.35 523.10 450.11 C 520.34 453.45 520.87 443.87 518.10 448.23 C 520.04 457.55 521.72 467.63 524.08 476.55 C 527.86 472.02 526.59 483.40 525.00 485.94 C 519.63 487.77 526.97 502.15 520.18 497.66 C 519.81 491.09 520.00 484.54 520.03 477.98 C 519.97 474.80 519.98 471.69 519.38 468.59 C 519.32 468.14 519.19 467.26 519.13 466.81 C 519.27 465.77 519.03 464.83 518.41 463.99 C 517.08 460.62 515.68 457.29 514.19 454.00 C 513.82 451.72 512.27 450.30 510.13 449.73 C 510.21 444.73 504.84 444.25 503.03 440.93 C 505.70 436.71 502.03 430.65 508.16 429.01 C 498.24 432.92 505.37 417.98 499.38 413.86 C 498.22 422.88 494.71 406.12 501.00 406.99 C 506.76 406.50 500.99 400.76 501.18 397.23 C 503.84 396.10 504.32 393.45 503.94 390.84 L 503.96 389.88 Z" />
<path fill="#dbdbd4" d=" M 513.44 386.15 C 517.11 383.96 514.41 389.82 513.44 386.15 Z" />
<path fill="#dbdbd4" d=" M 482.13 387.41 C 487.06 387.54 480.49 392.54 482.13 387.41 Z" />
<path fill="#ffffff" d=" M 484.94 386.98 C 488.06 387.67 489.02 392.67 488.30 395.67 C 492.83 395.88 490.16 399.00 487.09 398.78 C 486.21 394.87 485.40 390.94 484.94 386.98 Z" />
<path fill="#dbdbd4" d=" M 501.18 397.23 C 501.96 395.04 502.68 392.79 503.94 390.84 C 504.32 393.45 503.84 396.10 501.18 397.23 Z" />
<path fill="#dbdbd4" d=" M 506.17 391.17 C 510.80 390.15 505.15 395.80 506.17 391.17 Z" />
<path fill="#dbdbd4" d=" M 492.23 392.24 C 497.60 392.06 490.17 397.93 492.23 392.24 Z" />
<path fill="#dbdbd4" d=" M 520.54 401.20 C 517.82 398.64 516.34 395.36 517.68 391.66 C 521.20 400.33 523.10 408.55 521.79 419.30 C 520.78 413.28 519.02 407.24 520.54 401.20 Z" />
<path fill="#ffffff" d=" M 513.10 394.26 C 516.37 394.44 511.56 397.29 513.10 394.26 Z" />
<path fill="#dbdbd4" d=" M 493.84 396.77 C 494.07 395.75 494.75 395.16 495.88 394.99 C 496.17 396.66 495.49 397.25 493.84 396.77 Z" />
<path fill="#8e7434" d=" M 475.18 397.18 C 479.20 396.15 474.15 401.20 475.18 397.18 Z" />
<path fill="#dbdbd4" d=" M 494.67 399.61 C 496.94 398.99 496.88 403.02 495.31 403.84 C 495.04 402.43 494.82 401.02 494.67 399.61 Z" />
<path fill="#dbdbd4" d=" M 506.20 399.04 C 510.93 399.48 502.75 402.75 506.20 399.04 Z" />
<path fill="#ffffff" d=" M 486.04 399.97 C 494.80 400.35 484.55 408.89 486.04 399.97 Z" />
<path fill="#dbdbd4" d=" M 478.17 402.17 C 482.80 401.15 477.15 406.80 478.17 402.17 Z" />
<path fill="#dbdbd4" d=" M 505.26 402.10 C 508.29 400.56 505.44 405.37 505.26 402.10 Z" />
<path fill="#dbdbd4" d=" M 477.24 405.23 C 482.93 403.17 477.06 410.60 477.24 405.23 Z" />
<path fill="#ffffff" d=" M 486.04 404.95 C 494.24 404.19 484.57 411.79 486.04 404.95 Z" />
<path fill="#ffffff" d=" M 505.23 405.00 C 513.33 406.53 503.80 413.24 498.79 410.96 C 498.61 405.93 507.80 410.67 505.23 405.00 Z" />
<path fill="#dbdbd4" d=" M 477.23 408.30 C 482.42 406.85 477.11 413.23 477.23 408.30 Z" />
<path fill="#ffffff" d=" M 512.26 410.10 C 515.29 408.56 512.44 413.37 512.26 410.10 Z" />
<path fill="#dbdbd4" d=" M 476.12 410.80 C 483.70 411.31 476.57 419.25 476.12 410.80 Z" />
<path fill="#ffffff" d=" M 505.21 411.35 C 510.20 414.03 501.65 417.20 505.21 411.35 Z" />
<path fill="#ffffff" d=" M 487.26 412.10 C 490.29 410.56 487.44 415.37 487.26 412.10 Z" />
<path fill="#dbdbd4" d=" M 476.06 415.77 C 483.50 418.79 475.62 422.09 476.06 415.77 Z" />
<path fill="#dbdbd4" d=" M 505.33 416.33 C 510.34 417.05 501.65 423.82 505.33 416.33 Z" />
<path fill="#dbdbd4" d=" M 521.90 420.14 C 523.64 422.85 525.70 433.05 523.06 436.16 C 523.03 430.80 522.40 425.46 521.90 420.14 Z" />
<path fill="#dbdbd4" d=" M 476.44 421.15 C 480.11 418.96 477.41 424.82 476.44 421.15 Z" />
<path fill="#dbdbd4" d=" M 505.44 421.15 C 509.11 418.96 506.41 424.82 505.44 421.15 Z" />
<path fill="#dbdbd4" d=" M 476.40 423.21 C 481.01 422.18 476.60 427.66 476.40 423.21 Z" />
<path fill="#dbdbd4" d=" M 506.18 423.18 C 510.20 422.15 505.15 427.20 506.18 423.18 Z" />
<path fill="#dbdbd4" d=" M 476.49 426.14 C 481.06 424.64 477.24 430.45 476.49 426.14 Z" />
<path fill="#dbdbd4" d=" M 506.26 426.10 C 509.29 424.56 506.44 429.37 506.26 426.10 Z" />
<path fill="#dbdbd4" d=" M 472.34 431.84 C 471.26 430.72 471.20 427.36 473.13 427.31 C 473.09 428.82 473.34 430.55 472.34 431.84 Z" />
<path fill="#dbdbd4" d=" M 475.44 429.15 C 479.11 426.96 476.41 432.82 475.44 429.15 Z" />
<path fill="#dbdbd4" d=" M 521.15 429.44 C 524.82 430.42 518.96 433.11 521.15 429.44 Z" />
<path fill="#dbdbd4" d=" M 441.70 483.31 C 436.16 466.30 439.62 447.38 439.76 429.75 C 440.25 447.67 439.16 465.62 441.70 483.31 Z" />
<path fill="#dbdbd4" d=" M 474.40 431.21 C 479.01 430.18 474.60 435.66 474.40 431.21 Z" />
<path fill="#dbdbd4" d=" M 495.82 436.05 C 494.69 433.62 497.58 427.65 497.94 433.05 C 497.89 452.10 498.68 471.23 497.27 490.26 C 495.60 472.33 499.11 453.53 495.82 436.05 Z" />
<path fill="#ffffff" d=" M 513.19 434.08 C 521.84 435.96 510.91 441.78 513.19 434.08 Z" />
<path fill="#dbdbd4" d=" M 517.46 434.24 C 523.28 431.75 518.42 439.16 517.46 434.24 Z" />
<path fill="#dbdbd4" d=" M 506.18 437.18 C 510.20 436.15 505.15 441.20 506.18 437.18 Z" />
<path fill="#dbdbd4" d=" M 523.06 438.81 C 521.58 438.44 521.49 437.86 522.81 437.07 C 522.87 437.50 523.00 438.38 523.06 438.81 Z" />
<path fill="#ffffff" d=" M 516.00 439.00 C 520.24 437.88 519.27 443.34 520.00 446.00 C 515.76 447.11 516.73 441.66 516.00 439.00 Z" />
<path fill="#dbdbd4" d=" M 524.99 439.24 C 527.10 439.58 525.90 443.76 524.13 443.70 C 523.86 442.15 524.51 440.67 524.99 439.24 Z" />
<path fill="#dbdbd4" d=" M 476.26 444.10 C 479.29 442.56 476.44 447.37 476.26 444.10 Z" />
<path fill="#dbdbd4" d=" M 470.74 453.91 C 466.28 455.11 471.38 446.26 471.70 449.76 C 470.77 450.95 470.19 452.42 470.74 453.91 Z" />
<path fill="#ffffff" d=" M 481.26 449.10 C 484.29 447.56 481.44 452.37 481.26 449.10 Z" />
<path fill="#dbdbd4" d=" M 558.53 452.93 C 557.68 451.76 557.49 450.12 558.69 449.13 C 559.72 450.42 559.66 451.69 558.53 452.93 Z" />
<path fill="#8e7434" d=" M 470.74 453.91 C 470.19 452.42 470.77 450.95 471.70 449.76 C 474.01 450.17 472.79 454.16 470.74 453.91 Z" />
<path fill="#dbdbd4" d=" M 510.13 449.73 C 512.27 450.30 513.82 451.72 514.19 454.00 C 512.31 453.24 509.35 452.36 510.13 449.73 Z" />
<path fill="#dbdbd4" d=" M 516.10 451.26 C 519.37 451.44 514.56 454.29 516.10 451.26 Z" />
<path fill="#dbdbd4" d=" M 472.11 459.10 C 472.37 458.63 472.90 457.69 473.16 457.22 C 472.90 457.69 472.37 458.63 472.11 459.10 Z" />
<path fill="#dbdbd4" d=" M 478.85 458.96 C 479.06 458.47 479.49 457.49 479.71 456.99 C 479.49 457.49 479.06 458.47 478.85 458.96 Z" />
<path fill="#dbdbd4" d=" M 471.17 462.08 C 471.39 461.58 471.82 460.57 472.04 460.06 C 471.82 460.57 471.39 461.58 471.17 462.08 Z" />
<path fill="#dbdbd4" d=" M 477.32 464.04 C 477.47 462.60 478.01 461.25 478.60 459.94 C 479.93 461.02 479.42 464.68 477.32 464.04 Z" />
<path fill="#dbdbd4" d=" M 470.30 466.07 C 469.22 464.61 469.48 463.62 471.09 463.09 C 471.24 464.19 470.98 465.18 470.30 466.07 Z" />
<path fill="#dbdbd4" d=" M 518.41 463.99 C 519.03 464.83 519.27 465.77 519.13 466.81 C 517.45 466.35 517.21 465.41 518.41 463.99 Z" />
<path fill="#dbdbd4" d=" M 469.36 469.96 C 468.23 468.53 468.48 467.55 470.10 467.04 C 470.26 468.11 470.02 469.09 469.36 469.96 Z" />
<path fill="#dbdbd4" d=" M 475.85 468.89 C 476.07 468.40 476.52 467.43 476.74 466.95 C 476.52 467.43 476.07 468.40 475.85 468.89 Z" />
<path fill="#dbdbd4" d=" M 519.38 468.59 C 519.98 471.69 519.97 474.80 520.03 477.98 C 516.69 477.86 519.77 471.06 519.38 468.59 Z" />
<path fill="#dbdbd4" d=" M 468.97 481.97 C 467.11 478.81 467.13 475.43 469.00 471.83 C 468.96 475.22 468.93 478.55 468.97 481.97 Z" />
<path fill="#dbdbd4" d=" M 469.48 483.44 C 472.34 486.64 469.52 491.29 469.96 494.95 C 468.58 492.16 468.42 488.32 469.48 483.44 Z" />
<path fill="#8e7434" d=" M 525.10 488.26 C 528.37 488.44 523.56 491.29 525.10 488.26 Z" />
<path fill="#8e7434" d=" M 475.15 491.44 C 478.82 492.41 472.96 495.11 475.15 491.44 Z" />
<path fill="#8e7434" d=" M 499.23 504.48 C 502.78 506.62 496.78 509.05 499.23 504.48 Z" />
<path fill="#8e7434" d=" M 474.18 505.17 C 477.19 504.99 476.78 509.95 478.08 512.07 C 475.85 510.84 470.99 507.74 474.18 505.17 Z" />
<path fill="#8e7434" d=" M 541.07 506.04 C 547.60 505.51 542.84 525.17 542.90 512.66 C 539.15 513.21 538.77 508.22 541.07 506.04 Z" />
<path fill="#8e7434" d=" M 499.10 509.26 C 502.37 509.44 497.56 512.29 499.10 509.26 Z" />
<path fill="#8e7434" d=" M 443.10 510.26 C 446.37 510.44 441.56 513.29 443.10 510.26 Z" />
<path fill="#8e7434" d=" M 458.00 511.79 C 462.54 517.61 456.89 519.74 458.00 511.79 Z" />
<path fill="#8e7434" d=" M 477.01 515.01 C 481.77 514.06 477.74 521.53 478.57 524.39 C 475.67 527.99 477.46 515.97 477.01 515.01 Z" />
<path fill="#8e7434" d=" M 541.10 515.26 C 544.37 515.44 539.56 518.29 541.10 515.26 Z" />
<path fill="#8e7434" d=" M 543.32 520.27 C 545.10 518.28 545.03 527.74 542.17 528.09 C 540.82 525.46 540.09 521.82 543.32 520.27 Z" />
<path fill="#8e7434" d=" M 459.13 523.36 C 463.12 522.73 458.34 527.33 459.13 523.36 Z" />
<path fill="#8e7434" d=" M 500.15 523.44 C 503.82 524.41 497.96 527.11 500.15 523.44 Z" />
<path fill="#8e7434" d=" M 431.86 526.04 C 446.51 521.50 435.34 534.34 431.86 526.04 Z" />
<path fill="#8e7434" d=" M 502.02 528.22 C 505.45 526.02 510.16 527.23 514.09 526.33 C 514.71 527.49 516.34 527.49 516.93 526.28 C 526.56 523.60 521.79 540.08 514.18 540.22 C 510.44 546.33 495.98 535.59 505.19 536.86 C 504.41 533.84 501.29 531.54 502.02 528.22 Z" />
<path fill="#dbdbd4" d=" M 514.09 526.33 C 514.80 526.32 516.22 526.29 516.93 526.28 C 516.34 527.49 514.71 527.49 514.09 526.33 Z" />
<path fill="#8e7434" d=" M 530.12 526.06 C 535.09 519.82 534.99 533.08 536.16 527.06 C 540.41 521.49 540.83 538.22 535.59 536.43 C 533.45 533.58 531.15 537.26 529.06 538.26 C 529.01 534.16 529.45 530.08 530.12 526.06 Z" />
<path fill="#8e7434" d=" M 487.29 527.09 C 496.91 523.09 490.54 534.02 492.01 538.20 C 495.13 537.91 496.54 535.09 498.01 532.74 C 501.27 546.77 488.71 535.56 481.91 538.95 C 487.14 536.88 484.38 530.52 487.29 527.09 Z" />
<path fill="#8e7434" d=" M 465.26 528.06 C 478.77 519.98 476.89 541.98 466.00 538.07 C 460.81 539.15 463.24 530.77 465.26 528.06 Z" />
<path fill="#8e7434" d=" M 478.39 528.24 C 484.15 526.36 480.77 535.61 476.15 534.21 C 476.80 532.19 477.54 530.19 478.39 528.24 Z" />
<path fill="#8e7434" d=" M 451.33 529.29 C 458.47 526.82 457.79 539.22 450.66 537.68 C 444.41 540.76 446.53 528.87 451.33 529.29 Z" />
<path fill="#8e7434" d=" M 554.37 536.36 C 559.53 538.67 545.26 541.54 554.37 536.36 Z" />
<path fill="#8e7434" d=" M 457.18 540.13 C 460.52 541.28 457.86 546.79 457.88 549.90 C 455.14 556.94 454.48 541.89 457.18 540.13 Z" />
<path fill="#8e7434" d=" M 471.45 563.42 C 472.30 556.75 467.21 545.54 473.89 540.89 C 477.34 546.55 472.58 556.35 476.00 561.09 C 477.26 555.71 473.86 546.87 476.98 542.91 C 476.47 558.29 478.60 573.54 478.08 588.92 C 481.17 590.14 488.39 587.04 489.97 589.90 C 485.46 591.46 475.35 588.23 477.99 597.02 C 476.90 603.29 466.89 601.83 470.86 594.01 C 461.45 594.50 452.90 599.39 443.52 600.40 C 438.45 605.30 437.73 598.48 440.33 597.33 C 449.32 591.00 461.34 593.01 471.31 590.26 C 473.18 583.83 471.71 576.26 471.38 569.48 C 472.85 567.57 473.77 565.11 471.45 563.42 Z" />
<path fill="#8e7434" d=" M 523.20 542.36 C 527.56 542.16 525.68 546.49 522.75 547.67 C 519.31 553.00 519.57 541.71 523.20 542.36 Z" />
<path fill="#8e7434" d=" M 538.31 542.27 C 542.97 541.48 539.87 549.45 536.00 547.00 C 535.78 544.94 535.68 542.47 538.31 542.27 Z" />
<path fill="#dbdbd4" d=" M 471.45 563.42 C 473.77 565.11 472.85 567.57 471.38 569.48 C 470.94 567.47 470.92 565.40 471.45 563.42 Z" />
<path fill="#dbdbd4" d=" M 474.92 565.06 C 476.74 570.26 478.15 581.90 476.08 587.00 C 476.41 579.64 475.56 572.36 474.92 565.06 Z" />
<path fill="#8e7434" d=" M 522.03 575.90 C 528.28 576.33 523.15 586.34 526.79 589.27 C 523.96 571.14 536.46 603.24 524.23 595.94 C 523.69 589.24 521.53 582.66 522.03 575.90 Z" />
<path fill="#8e7434" d=" M 585.35 579.41 C 590.13 582.53 585.36 588.57 580.29 586.55 C 571.76 594.85 579.73 579.94 585.35 579.41 Z" />
<path fill="#000000" d=" M 418.23 583.05 C 431.08 587.10 433.04 604.11 438.69 614.33 C 436.14 597.32 456.83 605.40 466.00 604.89 C 483.76 603.13 501.46 609.52 519.64 606.64 C 526.59 607.35 522.40 600.78 518.84 598.93 C 521.90 600.13 533.76 595.82 530.42 602.41 C 524.66 607.86 543.88 603.12 536.88 607.82 C 527.25 615.08 548.38 615.84 551.21 609.17 C 554.99 600.80 571.63 608.75 570.35 596.77 C 573.66 602.72 577.32 594.98 582.77 596.07 C 586.34 600.47 580.95 603.86 580.07 608.03 C 579.17 617.37 568.56 610.02 563.01 612.95 C 558.46 614.53 562.12 602.70 557.83 606.82 C 551.52 620.13 534.50 611.17 523.71 615.72 C 520.13 620.78 532.00 615.25 532.30 620.74 C 535.10 629.82 529.01 634.54 524.13 639.18 C 523.17 631.42 523.54 622.59 518.14 616.25 C 520.97 616.40 525.05 611.96 516.01 614.97 C 503.81 615.86 491.59 616.10 479.35 616.18 C 475.95 617.72 477.42 620.62 480.75 619.53 C 480.83 622.20 481.96 624.18 484.85 624.31 C 481.64 624.97 477.77 633.68 479.59 626.64 C 479.97 613.92 476.67 643.73 476.02 627.02 C 477.24 621.54 473.73 623.33 471.08 625.94 C 468.41 622.24 471.47 620.00 473.16 617.06 C 462.45 620.62 451.17 616.57 440.30 618.94 C 441.84 625.84 432.98 615.71 429.20 616.03 C 434.01 608.23 422.35 603.83 417.30 600.68 C 416.03 595.03 415.03 588.12 418.23 583.05 Z" />
<path fill="#dbdbd4" d=" M 476.23 588.48 C 479.78 590.62 473.78 593.05 476.23 588.48 Z" />
<path fill="#8e7434" d=" M 569.35 591.25 C 577.71 592.92 558.72 603.46 556.11 602.20 C 560.27 598.85 565.57 595.66 569.35 591.25 Z" />
<path fill="#000000" d=" M 595.34 592.31 C 602.30 592.20 587.21 600.30 596.72 599.32 C 604.44 608.21 587.38 608.82 581.90 612.10 C 585.85 605.47 588.04 595.73 595.34 592.31 Z" />
<path fill="#8e7434" d=" M 548.46 598.47 C 563.47 594.86 543.71 608.76 545.04 599.19 C 546.16 598.87 547.30 598.63 548.46 598.47 Z" />
<path fill="#8e7434" d=" M 502.92 599.00 C 506.14 600.11 513.29 596.85 515.08 600.00 C 511.81 598.84 504.70 602.14 502.92 599.00 Z" />
<path fill="#000000" d=" M 420.27 605.15 C 426.15 605.40 423.81 616.63 419.19 616.95 C 416.49 613.23 416.62 608.19 420.27 605.15 Z" />
<path fill="#8e7434" d=" M 546.44 606.15 C 550.11 603.96 547.41 609.81 546.44 606.15 Z" />
<path fill="#8e7434" d=" M 415.15 608.44 C 418.82 609.41 412.96 612.11 415.15 608.44 Z" />
<path fill="#8e7434" d=" M 576.31 615.25 C 581.29 613.24 575.64 619.52 576.31 615.25 Z" />
<path fill="#8e7434" d=" M 597.15 616.44 C 600.81 617.41 594.96 620.11 597.15 616.44 Z" />
<path fill="#000000" d=" M 419.24 618.39 C 425.49 622.44 417.57 633.97 419.90 640.89 C 414.22 636.73 418.10 647.95 413.39 643.90 C 416.50 635.65 406.45 619.05 419.24 618.39 Z" />
<path fill="#dbdbd4" d=" M 415.15 621.44 C 418.82 622.41 412.96 625.11 415.15 621.44 Z" />
<path fill="#dbdbd4" d=" M 528.26 622.31 C 532.19 625.70 524.45 628.54 528.26 622.31 Z" />
<path fill="#8e7434" d=" M 458.26 623.10 C 461.29 621.56 458.44 626.37 458.26 623.10 Z" />
<path fill="#8e7434" d=" M 453.44 624.15 C 457.11 621.96 454.42 627.81 453.44 624.15 Z" />
<path fill="#000000" d=" M 591.27 635.11 C 598.45 638.26 602.57 652.57 594.09 658.97 C 607.44 671.79 583.79 675.72 580.01 666.09 C 589.70 658.15 587.56 645.53 591.27 635.11 Z" />
<path fill="#8e7434" d=" M 476.13 636.36 C 480.12 635.73 475.34 640.33 476.13 636.36 Z" />
<path fill="#000000" d=" M 411.22 642.28 C 409.71 643.89 416.68 650.37 412.68 652.91 C 402.87 653.80 392.05 650.21 382.80 654.76 C 389.50 656.00 396.50 655.66 402.95 658.18 C 403.27 661.78 397.90 661.01 395.76 662.79 C 392.00 664.75 397.78 669.43 394.92 671.95 C 388.05 671.50 394.32 659.24 385.00 663.02 C 378.21 662.62 369.97 664.22 364.07 659.80 C 364.39 654.69 375.77 657.39 372.02 650.19 C 384.86 648.24 397.77 646.70 410.72 645.81 C 410.87 644.62 411.04 643.45 411.22 642.28 Z" />
<path fill="#000000" d=" M 431.24 643.18 C 436.81 645.00 435.41 652.36 436.66 657.43 C 430.57 663.14 434.40 658.12 434.88 653.28 C 428.99 651.83 428.23 647.70 431.24 643.18 Z" />
<path fill="#000000" d=" M 506.47 644.46 C 511.36 644.75 517.09 654.41 522.09 650.08 C 528.46 643.73 530.06 663.46 523.10 659.02 C 514.76 647.20 495.81 665.09 490.06 650.10 C 494.38 644.81 501.30 647.02 506.47 644.46 Z" />
<path fill="#8e7434" d=" M 544.51 644.13 C 549.99 643.31 544.54 649.76 544.51 644.13 Z" />
<path fill="#8e7434" d=" M 477.15 645.44 C 480.82 646.41 474.96 649.11 477.15 645.44 Z" />
<path fill="#000000" d=" M 422.30 648.12 C 429.78 643.00 428.93 658.20 423.10 656.00 C 420.79 655.14 419.47 649.53 422.30 648.12 Z" />
<path fill="#000000" d=" M 454.22 649.23 C 460.31 649.19 471.11 647.36 469.87 656.75 C 464.41 658.35 451.59 657.01 454.22 649.23 Z" />
<path fill="#000000" d=" M 546.23 649.07 C 552.25 655.21 561.43 654.49 569.62 655.23 C 570.01 660.23 574.22 663.62 575.96 667.92 C 574.09 673.92 565.37 669.84 560.97 670.08 C 554.22 669.80 561.44 658.04 554.95 657.24 C 550.41 659.02 541.69 653.94 546.23 649.07 Z" />
<path fill="#8e7434" d=" M 433.10 654.26 C 436.37 654.44 431.56 657.29 433.10 654.26 Z" />
<path fill="#8e7434" d=" M 476.41 654.38 C 481.25 662.97 469.84 662.00 476.41 654.38 Z" />
<path fill="#000000" d=" M 417.19 662.04 C 422.24 663.59 425.69 678.40 416.24 676.87 C 414.16 672.34 414.95 666.31 417.19 662.04 Z" />
<path fill="#8e7434" d=" M 506.27 664.25 C 510.43 662.05 507.44 669.74 507.95 672.10 C 503.89 672.44 503.38 665.87 506.27 664.25 Z" />
<path fill="#8e7434" d=" M 520.96 664.01 C 525.23 664.79 529.05 666.49 533.03 663.93 C 534.56 669.54 526.83 665.82 525.56 669.43 C 522.85 676.03 520.52 667.36 520.96 664.01 Z" />
<path fill="#8e7434" d=" M 549.04 663.82 C 556.57 668.60 546.45 673.52 549.04 663.82 Z" />
<path fill="#8e7434" d=" M 602.92 664.01 C 616.52 661.10 601.97 673.87 602.92 664.01 Z" />
<path fill="#000000" d=" M 405.23 665.08 C 412.06 662.29 415.29 678.38 406.37 674.71 C 401.43 673.93 402.48 667.84 405.23 665.08 Z" />
<path fill="#000000" d=" M 470.05 666.01 C 474.86 663.86 489.13 670.95 479.61 674.70 C 471.58 678.06 470.04 672.26 470.05 666.01 Z" />
<path fill="#000000" d=" M 449.31 668.13 C 453.36 667.06 457.54 675.28 451.37 675.35 C 446.39 677.07 445.30 670.21 449.31 668.13 Z" />
<path fill="#8e7434" d=" M 431.19 671.19 C 435.10 674.22 426.86 674.34 431.19 671.19 Z" />
<path fill="#8e7434" d=" M 634.26 672.10 C 637.29 670.56 634.44 675.37 634.26 672.10 Z" />
<path fill="#000000" d=" M 332.11 686.84 C 331.72 682.36 328.30 672.53 335.89 672.81 C 342.72 678.36 339.00 688.35 343.07 695.15 C 348.69 691.47 353.31 676.35 360.01 687.02 C 366.27 703.07 361.48 721.39 364.73 738.29 C 364.43 784.90 368.10 831.40 367.35 877.99 C 369.15 892.11 369.01 911.85 381.04 921.05 C 375.65 851.38 379.01 781.15 374.37 711.41 C 374.02 705.24 381.00 678.17 389.70 693.22 C 398.61 699.88 394.05 712.76 393.05 721.97 C 393.95 760.99 397.31 799.99 398.10 839.02 C 400.77 870.99 399.44 903.85 404.64 935.32 C 421.46 940.82 441.90 933.35 459.37 939.68 C 476.43 943.57 464.44 964.97 468.30 976.75 C 468.55 984.36 469.58 995.49 460.81 998.97 C 460.34 999.02 459.40 999.12 458.93 999.17 C 451.60 1000.47 443.34 999.31 439.61 992.28 C 437.61 977.54 440.44 962.40 438.38 947.65 C 438.24 947.03 437.96 945.78 437.82 945.16 C 437.63 943.23 435.21 943.64 433.96 944.11 C 432.03 944.04 430.11 943.99 428.19 943.90 C 416.72 941.35 404.00 943.00 394.09 935.95 C 388.16 946.73 400.57 967.77 388.03 977.19 L 387.25 977.47 C 380.17 978.61 368.25 977.01 370.04 966.97 C 366.03 946.96 379.94 918.30 358.60 905.40 C 351.21 898.88 349.24 888.92 344.02 880.95 L 343.75 880.24 C 339.06 864.44 340.06 847.81 337.79 831.64 L 337.72 830.99 C 337.51 819.98 339.24 808.75 337.10 797.89 L 336.91 797.12 C 336.97 789.29 337.28 781.46 336.33 773.69 C 335.64 744.72 334.85 715.70 332.11 686.84 Z" />
<path fill="#8e7434" d=" M 598.16 674.11 C 608.52 672.35 595.77 685.32 591.15 680.79 C 589.38 675.23 599.71 680.87 598.16 674.11 Z" />
<path fill="#8e7434" d=" M 610.24 677.17 C 618.00 679.07 607.14 683.09 610.24 677.17 Z" />
<path fill="#000000" d=" M 628.86 707.80 C 633.34 707.77 641.15 703.31 643.97 705.93 C 632.96 717.50 606.56 706.54 603.61 727.64 C 600.86 793.37 600.49 859.16 600.15 924.88 C 599.97 928.89 606.79 933.02 601.63 935.90 C 590.90 937.13 583.70 927.60 575.20 922.66 C 574.50 855.86 576.77 788.62 578.11 721.98 C 571.37 715.50 556.56 722.89 558.22 733.07 C 555.58 800.12 558.67 866.92 558.06 933.99 C 557.69 937.72 566.79 945.45 557.13 943.31 C 552.75 958.71 565.39 982.11 550.82 992.91 C 549.76 992.72 548.84 992.97 548.04 993.67 L 547.26 994.01 C 544.39 993.97 541.53 993.92 538.69 993.86 L 537.83 993.61 C 536.22 993.03 534.58 992.58 532.93 992.21 L 532.12 991.93 C 531.74 990.97 531.08 990.28 530.15 989.87 L 529.87 989.11 C 529.59 987.95 529.05 986.91 528.34 986.00 C 528.26 985.27 528.09 983.82 528.00 983.09 C 528.01 980.35 528.01 977.64 528.01 974.96 C 527.79 958.74 528.33 942.50 527.86 926.30 C 525.40 925.61 520.70 926.52 523.99 920.98 C 524.13 855.75 527.02 790.61 528.80 725.43 C 523.31 721.25 513.82 720.08 509.52 726.51 C 503.59 741.34 507.27 758.35 505.00 773.98 C 506.01 830.98 502.90 888.39 506.88 945.14 C 493.78 943.75 489.92 925.55 476.07 928.84 C 475.43 863.55 477.02 798.14 475.20 732.92 C 474.89 724.55 465.27 721.60 458.32 723.28 C 440.35 725.88 422.14 722.19 405.01 716.95 C 403.22 715.72 395.28 714.25 399.29 711.13 C 475.65 717.41 552.74 717.28 628.86 707.80 Z" />
<path fill="#dbdbd4" d=" M 336.33 773.69 C 337.28 781.46 336.97 789.29 336.91 797.12 C 334.97 789.47 336.36 781.44 336.33 773.69 Z" />
<path fill="#dbdbd4" d=" M 337.10 797.89 C 339.24 808.75 337.51 819.98 337.72 830.99 C 336.22 820.01 337.28 808.91 337.10 797.89 Z" />
<path fill="#dbdbd4" d=" M 343.75 880.24 C 335.50 865.72 339.18 847.52 337.79 831.64 C 340.06 847.81 339.06 864.44 343.75 880.24 Z" />
<path fill="#dbdbd4" d=" M 344.02 880.95 C 349.24 888.92 351.21 898.88 358.60 905.40 C 379.94 918.30 366.03 946.96 370.04 966.97 C 368.25 977.01 380.17 978.61 387.25 977.47 C 380.24 981.03 367.17 977.82 369.05 967.97 C 366.14 949.89 374.65 928.47 364.74 912.35 C 354.08 905.06 347.20 893.31 344.02 880.95 Z" />
<path fill="#dbdbd4" d=" M 374.06 921.83 C 381.82 931.22 374.42 946.24 376.77 958.03 C 375.01 961.95 381.37 975.04 374.06 973.98 C 373.94 956.59 373.93 939.20 374.06 921.83 Z" />
<path fill="#dbdbd4" d=" M 534.06 930.02 C 534.78 930.02 536.22 930.02 536.94 930.02 C 537.06 948.33 537.06 966.66 536.94 984.98 C 536.22 984.98 534.78 984.98 534.06 984.98 C 533.93 966.66 533.93 948.33 534.06 930.02 Z" />
<path fill="#dbdbd4" d=" M 384.21 931.07 C 391.52 934.56 384.60 949.85 387.02 957.00 C 385.28 960.99 390.94 976.09 383.68 974.36 C 383.32 960.58 381.16 944.42 384.21 931.07 Z" />
<path fill="#ffffff" d=" M 384.03 936.01 C 389.41 936.26 384.23 947.31 385.97 950.99 C 380.57 950.71 385.75 939.65 384.03 936.01 Z" />
<path fill="#dbdbd4" d=" M 388.03 977.19 C 400.57 967.77 388.16 946.73 394.09 935.95 C 404.00 943.00 416.72 941.35 428.19 943.90 C 417.12 942.13 403.73 945.32 394.86 937.18 C 388.57 946.30 402.89 971.62 388.03 977.19 Z" />
<path fill="#dbdbd4" d=" M 546.20 938.04 C 549.39 937.70 551.32 942.44 550.00 945.01 C 549.82 959.24 550.40 973.53 549.82 987.75 C 547.72 991.44 541.81 986.69 544.99 983.00 C 546.42 968.32 542.45 952.01 546.20 938.04 Z" />
<path fill="#dbdbd4" d=" M 433.96 944.11 C 435.21 943.64 437.63 943.23 437.82 945.16 C 436.42 945.49 434.98 945.09 433.96 944.11 Z" />
<path fill="#dbdbd4" d=" M 443.06 945.03 C 445.73 945.16 450.47 943.56 447.03 950.00 C 446.91 964.00 447.19 978.02 446.92 992.04 C 445.50 992.03 443.86 992.20 443.13 990.71 C 442.84 975.48 442.96 960.25 443.06 945.03 Z" />
<path fill="#dbdbd4" d=" M 458.25 945.28 C 462.72 954.11 458.55 969.91 460.05 981.00 C 458.92 984.72 463.14 994.70 456.20 994.07 C 455.55 977.91 453.50 959.51 458.25 945.28 Z" />
<path fill="#dbdbd4" d=" M 438.38 947.65 C 440.44 962.40 437.61 977.54 439.61 992.28 C 443.34 999.31 451.60 1000.47 458.93 999.17 L 459.12 1000.00 L 445.38 1000.00 C 428.71 988.72 442.11 963.98 438.38 947.65 Z" />
<path fill="#ffffff" d=" M 384.17 954.17 C 388.80 953.15 383.15 958.79 384.17 954.17 Z" />
<path fill="#ffffff" d=" M 384.06 958.03 C 384.55 959.28 385.54 961.79 386.03 963.05 C 386.20 974.90 382.83 962.15 384.06 958.03 Z" />
<path fill="#ffffff" d=" M 546.04 961.90 C 553.89 964.06 543.61 971.34 546.04 961.90 Z" />
<path fill="#ffffff" d=" M 457.02 963.01 C 462.30 961.95 457.25 971.60 458.98 973.99 C 453.68 975.03 458.71 965.33 457.02 963.01 Z" />
<path fill="#ffffff" d=" M 546.26 973.10 C 549.29 971.56 546.44 976.37 546.26 973.10 Z" />
<path fill="#dbdbd4" d=" M 528.00 983.09 C 526.25 982.10 526.27 975.87 528.01 974.96 C 528.01 977.64 528.01 980.35 528.00 983.09 Z" />
<path fill="#dbdbd4" d=" M 468.30 976.75 C 469.03 983.87 471.73 998.92 460.81 998.97 C 469.58 995.49 468.55 984.36 468.30 976.75 Z" />
<path fill="#dbdbd4" d=" M 528.34 986.00 C 529.05 986.91 529.59 987.95 529.87 989.11 C 528.12 989.97 526.90 986.96 528.34 986.00 Z" />
<path fill="#dbdbd4" d=" M 530.15 989.87 C 531.08 990.28 531.74 990.97 532.12 991.93 C 530.34 992.30 529.69 991.62 530.15 989.87 Z" />
<path fill="#dbdbd4" d=" M 532.93 992.21 C 534.58 992.58 536.22 993.03 537.83 993.61 C 536.49 994.93 532.44 994.62 532.93 992.21 Z" />
<path fill="#dbdbd4" d=" M 548.04 993.67 C 548.84 992.97 549.76 992.72 550.82 992.91 C 550.37 994.55 549.45 994.80 548.04 993.67 Z" />
<path fill="#dbdbd4" d=" M 538.69 993.86 C 541.53 993.92 544.39 993.97 547.26 994.01 C 545.51 995.69 540.28 995.77 538.69 993.86 Z" />
</svg>
